<?xml version="1.0" standalone="no"?>
<!DOCTYPE svg PUBLIC "-//W3C//DTD SVG 20010904//EN"
 "http://www.w3.org/TR/2001/REC-SVG-20010904/DTD/svg10.dtd">
<svg version="1.0" xmlns="http://www.w3.org/2000/svg"
 width="640.000000pt" height="640.000000pt" viewBox="0 0 640.000000 640.000000"
 preserveAspectRatio="xMidYMid meet">
<metadata>
Created by potrace 1.14, written by Peter Selinger 2001-2017
</metadata>
<g transform="translate(0.000000,640.000000) scale(0.100000,-0.100000)"
fill="#000000" stroke="none">
<path d="M3963 6270 c-23 -5 -55 -15 -70 -24 -23 -12 -39 -13 -74 -4 -67 15
-243 4 -313 -21 -149 -53 -330 -173 -432 -288 -150 -168 -235 -327 -327 -608
-99 -304 -115 -360 -146 -512 -32 -153 -40 -304 -22 -413 6 -38 8 -26 14 70 6
105 48 344 63 359 3 3 3 -23 -1 -59 -11 -111 -13 -292 -4 -365 25 -201 51
-512 58 -688 l8 -198 34 -66 c19 -37 41 -69 49 -71 9 -3 11 1 6 14 -12 31 -38
174 -33 187 7 23 39 -130 44 -215 6 -94 -5 -138 -39 -163 -11 -7 -17 -18 -14
-24 8 -12 66 -7 95 8 30 16 71 71 78 103 9 48 20 41 33 -24 13 -68 12 -71 -50
-88 -20 -5 -60 -31 -90 -57 -92 -81 -128 -104 -185 -119 -75 -19 -128 -47
-149 -78 -9 -14 -23 -26 -31 -26 -9 0 -66 -14 -127 -31 -151 -42 -293 -61
-393 -53 -100 8 -188 -15 -245 -64 -21 -17 -43 -32 -48 -32 -6 0 -12 -6 -15
-12 -3 -8 -19 1 -43 26 -41 41 -41 41 -157 24 -27 -4 -85 94 -93 158 l-6 51
51 37 c28 21 51 42 51 47 0 17 61 78 103 103 23 13 66 49 95 79 47 47 57 65
77 136 46 157 52 318 20 486 -31 157 -83 249 -224 398 -188 199 -535 209 -748
22 -28 -25 -54 -45 -57 -45 -9 0 5 80 20 117 7 18 25 49 40 68 14 19 24 41 21
49 -7 19 -56 29 -73 15 -32 -26 -65 -116 -70 -190 -8 -110 -8 -111 -74 -157
-37 -26 -68 -58 -80 -82 -11 -21 -31 -56 -45 -76 -14 -21 -35 -69 -47 -107
-28 -95 -22 -221 17 -322 15 -38 27 -83 27 -98 -1 -34 13 -27 22 10 9 34 131
280 192 385 32 55 68 98 125 150 45 40 96 87 113 104 17 17 41 35 54 38 19 6
25 2 37 -26 9 -24 11 -46 6 -70 -11 -47 -92 -176 -151 -242 -26 -28 -53 -69
-60 -91 -24 -78 -63 -180 -75 -200 -21 -35 -35 -87 -55 -215 -14 -82 -17 -126
-10 -128 5 -2 10 -9 10 -16 0 -17 33 -46 53 -46 27 0 71 66 127 188 31 67 84
159 125 217 39 55 81 116 92 135 23 38 205 220 219 220 5 0 20 -7 32 -16 47
-33 13 -155 -69 -248 -68 -77 -154 -244 -204 -394 -40 -119 -44 -140 -34 -169
9 -29 15 -33 48 -33 45 0 90 43 140 133 45 82 99 150 130 163 14 6 51 32 81
58 30 25 72 51 94 57 23 6 62 22 88 35 58 30 72 30 65 3 -4 -16 -3 -18 9 -8
17 14 19 0 4 -50 -10 -34 -20 -45 -81 -86 -20 -13 -79 -66 -131 -117 -77 -75
-98 -103 -112 -143 -30 -94 -26 -130 29 -220 26 -44 68 -106 92 -138 24 -32
52 -80 63 -107 26 -65 42 -195 28 -226 -6 -12 -43 -47 -82 -78 -136 -105 -362
-266 -375 -266 -3 0 -7 14 -8 31 -1 18 -9 39 -17 48 -8 9 -17 28 -21 43 -4 15
-13 32 -21 39 -8 6 -14 20 -14 31 0 11 -5 29 -11 41 -23 42 -147 203 -178 230
-17 15 -31 30 -31 35 0 4 -37 41 -82 82 -62 56 -75 65 -51 34 18 -22 51 -54
74 -69 26 -19 36 -31 28 -34 -24 -8 -172 -136 -228 -197 -70 -76 -101 -127
-101 -163 0 -36 56 -144 146 -283 95 -146 124 -196 124 -216 0 -9 -25 -48 -56
-87 -31 -38 -62 -85 -70 -104 -23 -54 -19 -228 7 -313 16 -51 20 -85 16 -127
-6 -64 -55 -193 -102 -267 -18 -28 -36 -61 -40 -75 -4 -13 -16 -41 -26 -61
-11 -21 -28 -86 -38 -145 -17 -101 -39 -163 -81 -223 -15 -23 -79 -182 -95
-237 l-6 -23 1720 0 1721 0 0 43 c1 39 4 44 44 69 23 15 51 30 62 34 10 4 30
17 44 29 14 12 48 30 75 40 28 10 82 35 120 56 51 28 254 109 272 109 1 0 6
-43 25 -247 l12 -133 908 0 c720 0 908 3 908 13 0 6 7 57 15 112 21 144 19
172 -20 308 -19 67 -39 151 -45 187 -12 81 -13 232 0 285 5 22 10 88 11 146 1
98 -1 109 -24 145 -27 41 -61 156 -77 264 -16 101 -90 440 -107 486 -8 22 -32
64 -53 92 -22 28 -46 64 -54 80 -8 16 -22 32 -31 35 -8 4 -15 15 -15 26 0 19
-71 91 -91 91 -19 0 -325 167 -416 227 -143 95 -162 111 -169 148 -4 25 -19
43 -57 72 -28 21 -71 62 -95 92 -24 30 -63 70 -85 89 l-41 34 57 -7 c62 -8 75
0 27 17 -17 5 -35 20 -42 32 -10 19 -9 19 16 -3 30 -28 34 -15 8 31 -35 64
-35 72 3 39 20 -17 44 -31 54 -31 9 0 28 -12 42 -26 29 -31 117 -98 142 -107
29 -11 86 18 87 44 0 3 -12 6 -27 6 -43 1 -82 20 -92 45 -12 32 -22 200 -12
194 5 -3 11 -19 14 -35 4 -17 23 -49 43 -71 39 -42 94 -78 94 -61 0 6 -8 15
-19 20 -10 6 -23 23 -29 38 -12 32 -32 190 -32 249 1 38 1 37 23 -26 58 -169
160 -269 278 -270 49 0 89 26 89 58 0 13 -5 11 -23 -10 -21 -26 -23 -26 -58
-12 -27 11 -41 27 -61 68 -15 30 -30 71 -33 92 l-7 39 20 -31 c22 -34 68 -74
86 -74 7 0 21 7 32 16 19 15 18 15 -2 5 -31 -15 -60 -3 -88 37 -56 83 -64 117
-75 338 -17 321 -18 311 23 328 49 20 97 88 137 195 5 13 12 21 16 18 8 -8 32
-218 33 -283 1 -129 -72 -258 -153 -271 -37 -6 -39 -7 -21 -20 37 -28 164 17
189 67 43 85 53 386 21 605 -10 66 -22 185 -26 265 -10 168 -21 239 -62 405
-83 337 -149 515 -265 723 -168 301 -272 419 -478 539 -131 76 -308 143 -431
163 -70 12 -232 11 -291 0z m712 -180 c3 -6 -1 -7 -9 -4 -18 7 -21 14 -7 14 6
0 13 -4 16 -10z m131 -97 c-3 -3 -15 4 -27 16 -13 12 -26 21 -31 21 -4 0 -8 5
-8 11 0 5 16 -2 35 -17 20 -15 33 -29 31 -31z m-1176 -184 c-7 -11 -14 -18
-17 -15 -3 3 0 12 7 21 18 21 23 19 10 -6z m30 -28 c0 -6 -4 -13 -10 -16 -5
-3 -10 1 -10 9 0 9 5 16 10 16 6 0 10 -4 10 -9z m2 -47 c65 -34 92 -84 137
-255 100 -383 118 -779 46 -1004 l-7 -20 13 20 c7 11 21 47 31 80 l18 60 -3
-70 c-3 -68 -19 -116 -53 -163 -16 -21 -16 -22 2 -15 11 3 44 30 74 59 55 54
76 56 45 6 -10 -17 -2 -12 23 16 28 29 50 70 73 132 18 49 34 88 36 87 1 -2 6
-60 11 -129 9 -117 5 -184 -14 -232 -14 -36 20 -11 55 40 18 27 37 48 43 46 5
-1 19 21 32 49 13 28 27 46 30 40 5 -7 14 -7 31 1 13 6 31 8 39 5 24 -9 8 -35
-30 -49 -36 -13 -38 -17 -28 -65 6 -31 33 -47 121 -73 43 -13 43 -13 78 25 68
71 92 158 65 229 -12 31 -1 33 34 5 24 -19 26 -27 27 -92 l0 -72 22 55 22 55
3 -53 c2 -42 -2 -63 -22 -99 -29 -50 -31 -57 -16 -48 14 9 13 -8 -2 -23 -9 -9
-8 -12 7 -12 10 0 39 17 64 38 25 21 59 46 75 56 l29 18 -7 -38 c-17 -92 -96
-203 -164 -230 -49 -19 -49 -31 0 -16 18 6 46 13 61 16 16 4 48 25 73 48 27
25 44 35 44 26 0 -36 -193 -373 -273 -476 -64 -85 -146 -152 -264 -218 -141
-79 -377 -166 -456 -168 -44 -1 -54 -3 -42 -12 17 -13 84 -4 190 25 78 21 276
101 299 121 21 16 21 1 0 -48 -24 -58 -72 -213 -79 -254 -7 -44 -21 -50 -119
-52 -99 -2 -471 47 -584 76 -54 14 -61 31 -55 123 3 39 0 106 -5 150 -6 44 -9
81 -7 83 1 2 36 -20 76 -48 77 -53 236 -150 246 -150 11 0 -42 37 -104 73 -77
44 -107 69 -212 176 -145 148 -191 219 -247 383 -39 114 -40 116 -16 96 22
-20 77 -48 93 -48 7 0 3 9 -9 20 -29 28 -28 29 16 19 20 -5 52 -9 71 -9 l34 0
-28 28 c-84 83 -179 253 -209 373 -9 36 -16 97 -16 136 0 66 2 70 26 82 15 6
27 10 29 9 1 -2 7 -17 14 -33 6 -17 27 -48 46 -70 35 -38 44 -40 25 -6 -13 25
-29 131 -19 131 4 0 9 10 11 21 2 12 13 26 26 30 21 8 22 6 22 -50 0 -32 3
-60 6 -63 3 -3 18 -1 34 5 40 15 57 -1 31 -30 -11 -12 -26 -23 -33 -25 -10 -4
-8 -14 8 -44 17 -33 25 -39 48 -36 18 2 25 -1 21 -8 -5 -8 15 -10 67 -8 63 3
73 5 70 20 -1 10 5 30 15 45 22 34 25 162 4 187 -19 23 -10 28 25 16 18 -6 50
-36 80 -75 27 -35 54 -64 60 -64 19 -1 -1 65 -31 104 -14 19 -24 39 -21 44 9
15 -87 58 -159 71 -41 7 -116 11 -179 8 l-108 -4 6 36 c3 19 6 49 6 67 0 28 4
33 33 41 35 10 195 0 295 -18 30 -5 80 -22 113 -36 45 -21 63 -24 71 -16 7 7
23 12 37 12 l26 1 -30 25 c-16 14 -43 32 -58 40 -73 39 -293 56 -411 33 -31
-7 -59 -10 -61 -7 -13 12 29 188 69 291 58 151 75 181 141 263 51 64 170 173
188 174 4 0 22 -7 39 -16z m1578 -343 c86 -173 210 -628 224 -826 l6 -80 -19
85 c-35 154 -147 552 -220 781 -44 136 -42 143 9 40z m-780 -344 c28 -81 50
-153 50 -162 0 -12 -12 -14 -77 -8 -43 3 -79 6 -79 7 -1 1 6 46 16 101 11 55
22 126 25 158 4 32 9 57 11 54 2 -2 27 -70 54 -150z m-1303 -59 c-3 -7 -5 -2
-5 12 0 14 2 19 5 13 2 -7 2 -19 0 -25z m11 -91 c2 -50 0 -67 -10 -67 -10 0
-10 -2 1 -9 11 -7 6 -13 -18 -26 -31 -16 -33 -16 -28 2 3 10 11 53 18 96 15
95 33 97 37 4z m1361 -103 c3 -2 8 -33 12 -67 4 -35 9 -70 11 -78 2 -10 -5
-13 -27 -9 -16 3 -75 5 -131 5 -93 0 -100 1 -96 18 3 10 11 21 19 24 10 4 11
8 4 12 -8 5 -7 20 2 52 11 36 18 45 42 51 30 7 155 1 164 -8z m-1149 -34 c0
-5 -4 -10 -10 -10 -5 0 -10 5 -10 10 0 6 5 10 10 10 6 0 10 -4 10 -10z m-260
-33 c0 -15 -29 -57 -30 -42 0 6 3 20 6 33 7 24 24 31 24 9z m1280 -157 c0 -5
-5 -10 -11 -10 -5 0 -7 5 -4 10 3 6 8 10 11 10 2 0 4 -4 4 -10z m-952 -41 c-2
-6 -7 -10 -11 -10 -4 1 -14 1 -23 1 -8 0 -12 5 -9 10 8 13 48 13 43 -1z m1915
-119 c20 -63 45 -152 56 -196 21 -81 21 -82 1 -139 -37 -108 -98 -195 -137
-195 -18 0 -17 148 2 315 8 72 15 171 15 222 0 93 7 131 20 116 4 -4 24 -60
43 -123z m-2493 52 c0 -19 -8 -45 -17 -56 -10 -12 -11 -15 -3 -8 22 19 27 15
34 -26 5 -32 24 -103 63 -237 5 -18 3 -18 -23 5 -21 17 -18 13 7 -15 20 -22
44 -55 53 -73 10 -18 31 -42 49 -52 35 -22 62 -27 36 -7 -23 18 -34 57 -16 57
26 0 52 -55 41 -85 -8 -19 -73 5 -142 53 -55 37 -95 92 -149 202 -47 96 -41
223 13 277 32 31 54 17 54 -35z m1516 -107 c3 -8 14 -17 25 -20 11 -4 17 -11
13 -16 -4 -6 -13 -4 -23 5 -10 9 -25 16 -34 16 -17 0 -22 11 -10 23 11 11 23
8 29 -8z m-3257 -35 c12 -6 19 -16 15 -21 -3 -6 2 -16 11 -23 15 -11 15 -13
-8 -23 -16 -8 -27 -23 -31 -46 -4 -23 -14 -38 -31 -45 -26 -12 -88 -5 -80 8 3
5 -9 13 -25 19 -17 5 -30 16 -30 23 0 18 75 78 96 78 14 0 15 3 6 12 -7 7 -12
17 -12 24 0 14 59 10 89 -6z m1934 -212 c8 -29 -2 -41 -26 -32 -16 6 -22 30
-33 124 l-6 55 29 -60 c17 -33 33 -72 36 -87z m1873 44 c-12 -11 -18 7 -10 30
l8 23 4 -23 c2 -13 1 -26 -2 -30z m-14 -51 c-2 -33 6 -39 27 -18 21 19 9 -57
-19 -121 -18 -42 -38 -65 -102 -116 -83 -66 -162 -110 -215 -120 l-32 -5 12
34 c20 55 51 82 116 101 33 9 66 24 73 32 11 13 10 15 -5 9 -47 -18 -69 -19
-78 -6 -14 22 -11 41 12 78 19 31 22 33 31 17 7 -12 6 -22 -5 -34 -34 -40 -25
-43 11 -4 l41 44 3 -39 c4 -37 5 -36 58 75 54 111 77 135 72 73z m-4204 -31
c26 -24 28 -52 7 -74 -8 -8 -15 -19 -15 -24 0 -12 -35 -22 -77 -22 -39 0 -42
15 -14 76 29 64 62 78 99 44z m4043 -70 l-10 -25 0 27 c-1 14 2 35 6 45 7 17
8 17 11 -2 1 -12 -2 -32 -7 -45z m358 -323 c0 -30 -4 -67 -9 -83 -7 -24 -8
-17 -9 38 -1 58 5 98 14 98 2 0 3 -24 4 -53z m-2200 -172 c-1 -40 -29 43 -34
102 l-5 58 20 -70 c11 -38 19 -79 19 -90z m376 -223 c-11 -11 -33 9 -38 35 -4
15 -9 39 -13 53 -3 14 8 1 25 -29 17 -30 29 -56 26 -59z m-136 -26 c-2 -2 -16
-6 -32 -10 -25 -6 -27 -4 -23 16 3 13 8 41 12 63 l6 40 21 -53 c11 -29 18 -54
16 -56z m1405 -126 c16 -32 3 -42 -14 -11 -10 20 -13 41 -6 41 3 0 11 -13 20
-30z m-1129 -29 c4 -13 19 -20 55 -25 28 -4 50 -11 50 -16 0 -6 6 -9 13 -7 6
1 11 -5 9 -13 -2 -11 1 -11 12 3 13 16 19 17 112 1 101 -16 152 -20 283 -23
41 0 72 -3 69 -6 -2 -3 -65 -14 -139 -26 -138 -21 -329 -26 -372 -10 -27 10
-53 -1 -43 -18 4 -6 20 -11 35 -11 16 0 37 -10 50 -24 l23 -25 -38 -4 c-22 -3
31 -4 116 -2 162 4 351 27 409 51 18 8 37 14 42 14 5 0 9 -24 9 -52 1 -46 5
-57 33 -84 43 -41 150 -115 212 -147 28 -14 73 -47 100 -73 l50 -47 -2 -90
c-3 -101 -6 -106 -68 -108 -22 0 -49 -5 -60 -10 -13 -6 3 -7 48 -3 67 6 67 6
67 -19 0 -26 -38 -66 -101 -104 -38 -24 -232 -104 -297 -124 -23 -7 -40 -14
-38 -16 9 -9 282 86 311 108 17 12 95 28 95 19 0 -27 -28 -65 -104 -142 -47
-49 -82 -88 -78 -88 4 0 41 34 81 75 41 41 77 75 82 75 10 0 -15 -85 -47 -162
-13 -32 -24 -65 -24 -75 0 -10 -9 -33 -21 -52 -17 -29 -22 -59 -29 -179 -6
-104 -12 -147 -21 -153 -8 -5 -90 -43 -184 -86 -93 -43 -209 -101 -257 -130
-48 -29 -92 -53 -98 -53 -5 0 -10 -4 -10 -10 0 -5 -28 -24 -62 -43 -186 -102
-178 -100 -178 -61 0 14 -11 66 -25 117 -14 51 -37 135 -51 187 -14 52 -36
127 -49 166 -13 39 -33 115 -43 169 -11 55 -29 109 -40 124 -101 137 -242 369
-242 399 0 6 21 -1 48 -14 26 -14 39 -19 28 -12 -93 65 -93 65 -118 140 -15
47 -22 83 -17 99 4 16 1 33 -7 44 -30 40 -13 164 27 205 35 35 232 135 237
121 2 -6 8 -11 13 -11 6 0 8 4 5 9 -3 4 1 17 9 27 8 10 15 29 15 42 0 13 6 22
15 22 8 0 15 -7 15 -15 0 -9 6 -12 15 -9 28 11 17 34 -17 34 -30 0 -68 23 -68
42 0 11 67 10 72 -1 2 -5 15 -12 29 -16 19 -5 26 -2 26 8 0 8 -5 13 -12 11 -6
-3 -19 4 -29 15 -14 15 -15 24 -6 40 6 12 17 21 24 21 8 0 16 7 20 15 8 21 23
19 31 -4z m-1885 -944 c0 -2 -10 -12 -21 -23 -22 -19 -22 -19 -10 4 10 18 31
31 31 19z m-100 -92 c-19 -14 -36 -25 -39 -25 -3 0 3 7 13 15 11 8 16 15 10
15 -15 0 20 20 35 20 8 0 0 -11 -19 -25z m-65 -35 c-3 -5 -11 -10 -16 -10 -6
0 -7 5 -4 10 3 6 11 10 16 10 6 0 7 -4 4 -10z m-20 -28 c-3 -3 -11 0 -18 7 -9
10 -8 11 6 5 10 -3 15 -9 12 -12z m-35 -17 c-7 -8 -19 -15 -27 -15 -13 0 -13
3 -3 15 7 8 19 15 27 15 13 0 13 -3 3 -15z m-74 -41 c-9 -8 -21 -12 -28 -8 -8
5 -6 10 8 15 31 12 37 10 20 -7z m-51 -43 c-3 -6 -11 -8 -17 -5 -6 4 -5 9 3
15 16 10 23 4 14 -10z m-30 -19 c-3 -3 -11 0 -18 7 -9 10 -8 11 6 5 10 -3 15
-9 12 -12z m-60 -19 c-2 -10 -4 -20 -4 -22 -1 -3 -7 1 -13 7 -10 10 -10 15 2
22 19 12 19 13 15 -7z m-45 -33 c8 -5 11 -10 5 -10 -5 0 -17 5 -25 10 -8 5
-10 10 -5 10 6 0 17 -5 25 -10z m-37 -17 c-7 -2 -21 -2 -30 0 -10 3 -4 5 12 5
17 0 24 -2 18 -5z m2342 -434 c8 -26 -16 -54 -39 -46 -16 6 -22 48 -9 60 14
14 42 6 48 -14z m869 -851 c4 -23 3 -44 -1 -48 -4 -4 -30 -15 -58 -24 -27 -10
-63 -24 -80 -30 -16 -7 -46 -19 -65 -27 -19 -7 -65 -30 -101 -51 -36 -21 -71
-38 -77 -38 -16 0 36 86 69 115 70 58 231 136 300 144 4 1 9 -18 13 -41z
m-398 -205 c-24 -48 -29 -51 -108 -81 -46 -18 -87 -32 -91 -32 -4 0 -7 13 -7
28 0 26 9 33 113 84 61 31 113 55 115 53 2 -2 -8 -25 -22 -52z m-448 -176 c-4
-39 -24 -46 -39 -14 -15 34 5 75 27 56 9 -7 14 -25 12 -42z"/>
<path d="M3728 3833 c7 -3 16 -2 19 1 4 3 -2 6 -13 5 -11 0 -14 -3 -6 -6z"/>
<path d="M4388 4713 c6 -2 18 -2 25 0 6 3 1 5 -13 5 -14 0 -19 -2 -12 -5z"/>
<path d="M4463 4703 c9 -2 23 -2 30 0 6 3 -1 5 -18 5 -16 0 -22 -2 -12 -5z"/>
<path d="M4657 3813 c-4 -3 -7 -12 -7 -20 0 -18 46 -17 53 1 4 10 1 13 -9 9
-7 -3 -14 0 -14 6 0 12 -13 15 -23 4z"/>
<path d="M3390 3066 c0 -8 4 -17 9 -20 5 -4 7 3 4 14 -6 23 -13 26 -13 6z"/>
<path d="M3441 3027 l-1 -38 30 17 c16 10 27 20 25 23 -3 2 -11 -1 -17 -7 -18
-18 -26 -14 -31 16 -3 21 -4 19 -6 -11z"/>
<path d="M3535 3000 c-3 -5 -1 -10 4 -10 6 0 11 5 11 10 0 6 -2 10 -4 10 -3 0
-8 -4 -11 -10z"/>
<path d="M3448 2911 c4 -17 7 -21 10 -11 3 8 9 18 14 21 5 3 1 8 -10 11 -16 4
-18 1 -14 -21z"/>
<path d="M3412 2860 c0 -14 2 -19 5 -12 2 6 2 18 0 25 -3 6 -5 1 -5 -13z"/>
<path d="M3462 2845 c0 -16 2 -22 5 -12 2 9 2 23 0 30 -3 6 -5 -1 -5 -18z"/>
<path d="M3420 2813 c0 -19 21 -27 33 -13 9 10 9 11 -2 5 -8 -4 -17 -2 -22 6
-6 9 -9 10 -9 2z"/>
<path d="M4100 2340 c-16 -5 -2 -6 35 -3 33 3 62 7 64 9 8 7 -74 2 -99 -6z"/>
<path d="M3235 2223 c18 -18 165 -95 165 -86 0 5 -35 26 -77 48 -103 51 -100
50 -88 38z"/>
<path d="M3978 2067 c-32 -6 -58 -13 -58 -17 0 -8 128 15 137 24 8 7 -4 6 -79
-7z"/>
<path d="M3633 2053 c9 -2 23 -2 30 0 6 3 -1 5 -18 5 -16 0 -22 -2 -12 -5z"/>
<path d="M3858 2043 c12 -2 30 -2 40 0 9 3 -1 5 -23 4 -22 0 -30 -2 -17 -4z"/>
<path d="M3725 2030 c17 -4 48 -8 70 -8 34 0 36 1 15 8 -14 4 -45 8 -70 8 -40
0 -42 -1 -15 -8z"/>
<path d="M422 4055 c0 -16 2 -22 5 -12 2 9 2 23 0 30 -3 6 -5 -1 -5 -18z"/>
<path d="M411 4004 c0 -11 3 -14 6 -6 3 7 2 16 -1 19 -3 4 -6 -2 -5 -13z"/>
<path d="M396 3965 c-3 -9 -6 -22 -5 -28 0 -7 5 -1 10 12 5 13 8 26 5 28 -2 2
-6 -3 -10 -12z"/>
<path d="M366 3875 c-9 -26 -7 -32 5 -12 6 10 9 21 6 23 -2 3 -7 -2 -11 -11z"/>
<path d="M342 3815 c-17 -37 -14 -45 4 -12 9 16 14 31 11 33 -2 2 -9 -7 -15
-21z"/>
<path d="M321 3763 c-1 -6 -4 -20 -7 -30 -5 -17 -5 -17 6 0 6 10 9 23 6 30 -3
9 -5 9 -5 0z"/>
<path d="M295 3635 c-4 -42 -5 -78 -2 -81 3 -3 8 29 12 71 4 42 5 78 2 81 -3
3 -8 -29 -12 -71z"/>
<path d="M289 3462 c-3 -20 -2 -29 4 -23 5 5 7 19 5 32 -3 20 -5 19 -9 -9z"/>
<path d="M292 3250 c0 -14 2 -19 5 -12 2 6 2 18 0 25 -3 6 -5 1 -5 -13z"/>
<path d="M282 3060 c0 -14 2 -19 5 -12 2 6 2 18 0 25 -3 6 -5 1 -5 -13z"/>
<path d="M310 2993 c0 -14 36 -50 65 -65 11 -5 5 2 -12 17 -18 14 -37 34 -43
43 -5 9 -10 12 -10 5z"/>
<path d="M400 2910 c0 -5 9 -11 20 -15 22 -7 60 -51 142 -167 23 -32 45 -58
50 -58 9 0 -98 150 -116 163 -8 5 -8 9 0 15 7 4 -10 19 -42 39 -30 17 -54 27
-54 23z"/>
<path d="M4255 59 c-4 -6 -5 -12 -2 -15 2 -3 7 2 10 11 7 17 1 20 -8 4z"/>
</g>
</svg>
